<?xml version="1.0" standalone="no"?>
<!DOCTYPE svg PUBLIC "-//W3C//DTD SVG 20010904//EN"
 "http://www.w3.org/TR/2001/REC-SVG-20010904/DTD/svg10.dtd">
<svg version="1.0" xmlns="http://www.w3.org/2000/svg"
 width="1600.000000pt" height="1200.000000pt" viewBox="0 0 1600.000000 1200.000000"
 preserveAspectRatio="xMidYMid meet">

<g transform="translate(0.000000,1200.000000) scale(0.100000,-0.100000)"
fill="#000000" stroke="none">
<path d="M2780 8379 c-406 -49 -812 -216 -1160 -478 -100 -75 -323 -296 -401
-396 -287 -369 -447 -750 -504 -1204 -21 -164 -16 -499 9 -656 139 -859 714
-1565 1523 -1868 770 -289 1656 -142 2301 382 124 100 307 289 399 413 242
322 399 700 458 1102 172 1179 -570 2320 -1714 2636 -215 59 -314 72 -586 75
-137 2 -284 -1 -325 -6z m505 -786 c199 -31 420 -123 598 -250 109 -78 267
-237 350 -353 78 -111 183 -317 226 -445 140 -420 111 -894 -79 -1293 -214
-450 -606 -763 -1065 -852 -147 -28 -373 -28 -520 0 -620 120 -1109 658 -1210
1330 -25 162 -23 389 3 550 124 739 690 1284 1387 1333 76 6 199 -2 310 -20z"/>
<path d="M12685 8383 c-22 -2 -92 -13 -155 -24 -890 -155 -1622 -818 -1869
-1694 -202 -719 -57 -1495 392 -2093 92 -124 275 -313 399 -413 574 -467 1333
-636 2055 -459 756 187 1392 764 1657 1506 44 123 90 305 112 439 25 157 30
492 9 656 -43 347 -145 644 -323 944 -97 164 -205 300 -366 461 -200 200 -368
320 -621 444 -251 123 -511 201 -767 229 -90 10 -430 13 -523 4z m496 -794
c304 -55 569 -203 794 -441 208 -221 348 -500 416 -828 21 -101 24 -141 23
-330 0 -196 -3 -226 -28 -344 -97 -454 -353 -831 -718 -1058 -141 -87 -274
-141 -458 -185 -107 -26 -463 -25 -565 0 -286 71 -501 187 -696 375 -245 235
-402 522 -476 871 -25 115 -27 146 -27 346 0 201 2 231 27 347 74 348 233 639
476 871 343 325 781 459 1232 376z"/>
<path d="M5650 7885 l0 -375 222 -2 222 -3 44 -100 c24 -55 172 -395 329 -755
836 -1917 1127 -2580 1155 -2630 142 -254 404 -401 721 -404 l118 -1 550 1285
c303 707 709 1652 902 2100 l352 815 3 223 3 222 -753 -2 -753 -3 -3 -372 -2
-373 240 -2 239 -3 -83 -200 c-46 -110 -143 -344 -216 -520 -73 -176 -183
-441 -245 -590 -126 -303 -407 -980 -467 -1125 -21 -52 -45 -108 -52 -125
l-14 -30 -16 35 c-9 19 -97 229 -197 465 -206 490 -295 701 -349 830 -445
1053 -530 1256 -530 1261 0 2 104 4 230 4 l230 0 0 375 0 375 -940 0 -940 0 0
-375z"/>
</g>
</svg>
